<svg width="0" height="0" class="hidden">
    <symbol xmlns="http://www.w3.org/2000/svg" viewBox="0 0 320 512" id="icon-facebook">
        <path d="M279.14 288l14.22-92.66h-88.91v-60.13c0-25.35 12.42-50.06 52.24-50.06h40.42V6.26S260.43 0 225.36 0c-73.22 0-121.08 44.38-121.08 124.72v70.62H22.89V288h81.39v224h100.17V288z" />
    </symbol>
    <symbol xmlns="http://www.w3.org/2000/svg" viewBox="0 0 448 512" id="icon-instagram">
        <path d="M224.1 141c-63.6 0-114.9 51.3-114.9 114.9s51.3 114.9 114.9 114.9S339 319.5 339 255.9 287.7 141 224.1 141zm0 189.6c-41.1 0-74.7-33.5-74.7-74.7s33.5-74.7 74.7-74.7 74.7 33.5 74.7 74.7-33.6 74.7-74.7 74.7zm146.4-194.3c0 14.9-12 26.8-26.8 26.8-14.9 0-26.8-12-26.8-26.8s12-26.8 26.8-26.8 26.8 12 26.8 26.8zm76.1 27.2c-1.7-35.9-9.9-67.7-36.2-93.9-26.2-26.2-58-34.4-93.9-36.2-37-2.1-147.9-2.1-184.9 0-35.8 1.7-67.6 9.9-93.9 36.1s-34.4 58-36.2 93.9c-2.1 37-2.1 147.9 0 184.9 1.7 35.9 9.9 67.7 36.2 93.9s58 34.4 93.9 36.2c37 2.1 147.9 2.1 184.9 0 35.9-1.7 67.7-9.9 93.9-36.2 26.2-26.2 34.4-58 36.2-93.9 2.1-37 2.1-147.8 0-184.8zM398.8 388c-7.8 19.6-22.9 34.7-42.6 42.6-29.5 11.7-99.5 9-132.1 9s-102.7 2.6-132.1-9c-19.6-7.8-34.7-22.9-42.6-42.6-11.7-29.5-9-99.5-9-132.1s-2.6-102.7 9-132.1c7.8-19.6 22.9-34.7 42.6-42.6 29.5-11.7 99.5-9 132.1-9s102.7-2.6 132.1 9c19.6 7.8 34.7 22.9 42.6 42.6 11.7 29.5 9 99.5 9 132.1s2.7 102.7-9 132.1z" />
    </symbol>
    <symbol xmlns="http://www.w3.org/2000/svg" viewBox="0 0 512 512" id="icon-twitter">
        <path d="M459.37 151.716c.325 4.548.325 9.097.325 13.645 0 138.72-105.583 298.558-298.558 298.558-59.452 0-114.68-17.219-161.137-47.106 8.447.974 16.568 1.299 25.34 1.299 49.055 0 94.213-16.568 130.274-44.832-46.132-.975-84.792-31.188-98.112-72.772 6.498.974 12.995 1.624 19.818 1.624 9.421 0 18.843-1.3 27.614-3.573-48.081-9.747-84.143-51.98-84.143-102.985v-1.299c13.969 7.797 30.214 12.67 47.431 13.319-28.264-18.843-46.781-51.005-46.781-87.391 0-19.492 5.197-37.36 14.294-52.954 51.655 63.675 129.3 105.258 216.365 109.807-1.624-7.797-2.599-15.918-2.599-24.04 0-57.828 46.782-104.934 104.934-104.934 30.213 0 57.502 12.67 76.67 33.137 23.715-4.548 46.456-13.32 66.599-25.34-7.798 24.366-24.366 44.833-46.132 57.827 21.117-2.273 41.584-8.122 60.426-16.243-14.292 20.791-32.161 39.308-52.628 54.253z" />
    </symbol>
    <symbol xmlns="http://www.w3.org/2000/svg" viewBox="0 0 700 700" id="icon-airplane">
        <path d="M468.8,567.2c-0.9,0-1.7-0.1-2.6-0.3c-3.8-0.9-6.9-3.7-8.1-7.4l-60.7-184.3l-60.2,60.9v85.1c0,2.9-1.2,5.8-3.2,7.9l-33.1,33.5c-2.5,2.6-6.2,3.7-9.8,3.2c-3.6-0.6-6.7-2.9-8.3-6.1l-46.7-94.5l-93.4-47.2c-3.2-1.6-5.4-4.7-6-8.2c-0.6-3.5,0.6-7.1,3.1-9.7l33.1-33.4c2.1-2.1,5-3.3,8-3.3h83.9l60.4-61.1l-182.4-61.5c-3.7-1.2-6.4-4.3-7.3-8c-0.9-3.8,0.2-7.7,2.9-10.5l34.8-35.2c2.4-2.4,5.6-3.6,9-3.3l238.4,21.9l37.8-38.2c5.7-5.8,35.8-34.6,65.1-34.6c11.4,0,21.6,4.2,29.4,12.2c24.9,25.1,6.8,65.9-22.2,95.2L493,278.4l21.7,241.4c0.3,3.3-0.9,6.5-3.2,8.9l-34.8,35.2C474.6,566,471.7,567.2,468.8,567.2L468.8,567.2z M166.7,404.8l83,42c2.2,1.1,3.9,2.9,5,5l41.4,83.8l18.8-19l0-85c0-2.9,1.2-5.8,3.2-7.9l76.3-77.2c2.7-2.8,6.7-3.9,10.5-3c3.8,0.9,6.9,3.7,8.1,7.4l60.7,184.3l18.2-18.5l-21.7-241.4c-0.3-3.3,0.9-6.5,3.2-8.9l41.5-42c17.1-17.3,37.1-48.6,22.2-63.7c-3.6-3.7-8.1-5.5-13.5-5.5c-16.9,0-38.9,17.6-49.2,27.9l-41.5,41.9c-2.4,2.4-5.6,3.6-9,3.3l-238.4-21.9l-18.5,18.7l182.4,61.5c3.7,1.2,6.4,4.3,7.3,8c0.9,3.8-0.2,7.7-2.9,10.5l-76.3,77.2c-2.1,2.1-5,3.3-8,3.3h-83.9L166.7,404.8z" />
    </symbol>
    <symbol xmlns="http://www.w3.org/2000/svg" viewBox="0 0 512 512" id="icon-search">
        <path d="M416 208c0 45.9-14.9 88.3-40 122.7L502.6 457.4c12.5 12.5 12.5 32.8 0 45.3s-32.8 12.5-45.3 0L330.7 376c-34.4 25.2-76.8 40-122.7 40C93.1 416 0 322.9 0 208S93.1 0 208 0S416 93.1 416 208zM208 352c79.5 0 144-64.5 144-144s-64.5-144-144-144S64 128.5 64 208s64.5 144 144 144z" />
    </symbol>
    <symbol xmlns="http://www.w3.org/2000/svg" viewBox="0 0 490.7 494.5" id="icon-help">
        <g>
            <path d="M252.5,31.4C138.3,31.4,45.5,123,45.5,235.5c0,30.7,6.7,60.1,20,87.5l-34.3,140l145.9-37.5c24,9.3,49.4,14,75.4,14c114.2,0,207.1-91.6,207.1-204.1C459.6,123,366.7,31.4,252.5,31.4z M252.5,412.6c-24,0-47.4-4.6-69.4-13.6l-4.1-1.7L68.1,425.8l25.9-106l-2.3-4.5c-12.8-24.9-19.3-51.7-19.3-79.8c0-97.7,80.8-177.1,180.1-177.1s180.1,79.4,180.1,177.1C432.6,333.2,351.8,412.6,252.5,412.6z" />
            <path d="M252.5,128.4c-35.6,0-64.6,29-64.6,64.6c0,5.8,4.7,10.5,10.5,10.5s10.5-4.7,10.5-10.5c0-24,19.6-43.6,43.6-43.6c24,0,43.6,19.6,43.6,43.6c0,24-19.6,43.5-43.6,43.6c-2.9,0-7.3,0-11.5,1.4c-7.2,2.4-11.6,8.1-11.8,15.4c-0.5,15-0.2,46.9-0.1,48.3c0.1,5.8,4.8,10.4,10.5,10.4c0,0,0.1,0,0.1,0c5.8-0.1,10.4-4.8,10.4-10.6c0-0.3-0.3-28.1,0-43.8c0.9,0,1.9,0,2.5,0c35.6-0.1,64.6-29.1,64.6-64.6C317.1,157.4,288.1,128.4,252.5,128.4z" />
            <ellipse transform="matrix(0.7071 -0.7071 0.7071 0.7071 -163.1604 265.5069)" cx="238.9" cy="329.7" rx="10.6" ry="10.6" />
        </g>
    </symbol>
    <!--<symbol xmlns="http://www.w3.org/2000/svg" viewBox="0 0 35.151 27.333" id="icon-tv">
        <path d="M32.766,5.484H4.346A3.469,3.469,0,0,0,.984,9.039V25.585a3.469,3.469,0,0,0,3.362,3.555H32.773a3.469,3.469,0,0,0,3.362-3.555V9.039A3.48,3.48,0,0,0,32.766,5.484Zm1.329,20.093a1.369,1.369,0,0,1-1.329,1.405H4.346a1.369,1.369,0,0,1-1.329-1.405V9.039A1.369,1.369,0,0,1,4.346,7.634H32.773A1.369,1.369,0,0,1,34.1,9.039V25.577Z" transform="translate(-0.984 -5.484)" fill="#fff" />
        <path d="M26.572,28.547H10.017a1.077,1.077,0,0,0,0,2.15H26.572a1.077,1.077,0,0,0,0-2.15Z" transform="translate(-0.722 -3.364)" />
    </symbol>-->
    <symbol xmlns="http://www.w3.org/2000/svg" viewBox="0 0 16 16" id="icon-tv">
        <path d="M2.5 13.5A.5.5 0 0 1 3 13h10a.5.5 0 0 1 0 1H3a.5.5 0 0 1-.5-.5zM13.991 3l.024.001a1.46 1.46 0 0 1 .538.143.757.757 0 0 1 .302.254c.067.1.145.277.145.602v5.991l-.001.024a1.464 1.464 0 0 1-.143.538.758.758 0 0 1-.254.302c-.1.067-.277.145-.602.145H2.009l-.024-.001a1.464 1.464 0 0 1-.538-.143.758.758 0 0 1-.302-.254C1.078 10.502 1 10.325 1 10V4.009l.001-.024a1.46 1.46 0 0 1 .143-.538.758.758 0 0 1 .254-.302C1.498 3.078 1.675 3 2 3h11.991zM14 2H2C0 2 0 4 0 4v6c0 2 2 2 2 2h12c2 0 2-2 2-2V4c0-2-2-2-2-2z" />
    </symbol>
    <symbol xmlns="http://www.w3.org/2000/svg" viewBox="0 0 35.08 26.31" id="icon-movie">
        <path d="M33.436,64h-.548v1.37a.825.825,0,0,1-.822.822H29.325a.825.825,0,0,1-.822-.822V64H6.578v1.37a.825.825,0,0,1-.822.822H3.015a.825.825,0,0,1-.822-.822V64H1.644A1.64,1.64,0,0,0,0,65.644V88.666A1.64,1.64,0,0,0,1.644,90.31h.548V88.94a.825.825,0,0,1,.822-.822H5.755a.825.825,0,0,1,.822.822v1.37H28.5V88.94a.825.825,0,0,1,.822-.822h2.741a.825.825,0,0,1,.822.822v1.37h.548a1.64,1.64,0,0,0,1.644-1.644V65.644A1.64,1.64,0,0,0,33.436,64ZM6.578,85.1a.825.825,0,0,1-.822.822H3.015a.825.825,0,0,1-.822-.822V82.362a.825.825,0,0,1,.822-.822H5.755a.825.825,0,0,1,.822.822Zm0-6.578a.825.825,0,0,1-.822.822H3.015a.825.825,0,0,1-.822-.822V75.785a.825.825,0,0,1,.822-.822H5.755a.825.825,0,0,1,.822.822Zm0-6.578a.825.825,0,0,1-.822.822H3.015a.825.825,0,0,1-.822-.822V69.207a.825.825,0,0,1,.822-.822H5.755a.825.825,0,0,1,.822.822ZM25.214,86.2a.825.825,0,0,1-.822.822h-13.7a.825.825,0,0,1-.822-.822V79.622a.825.825,0,0,1,.822-.822h13.7a.825.825,0,0,1,.822.822Zm0-11.511a.825.825,0,0,1-.822.822h-13.7a.825.825,0,0,1-.822-.822V68.111a.825.825,0,0,1,.822-.822h13.7a.825.825,0,0,1,.822.822ZM32.888,85.1a.825.825,0,0,1-.822.822H29.325A.825.825,0,0,1,28.5,85.1V82.362a.825.825,0,0,1,.822-.822h2.741a.825.825,0,0,1,.822.822Zm0-6.578a.825.825,0,0,1-.822.822H29.325a.825.825,0,0,1-.822-.822V75.785a.825.825,0,0,1,.822-.822h2.741a.825.825,0,0,1,.822.822Zm0-6.578a.825.825,0,0,1-.822.822H29.325a.825.825,0,0,1-.822-.822V69.207a.825.825,0,0,1,.822-.822h2.741a.825.825,0,0,1,.822.822Z" transform="translate(0 -64)" />
    </symbol>
    <symbol xmlns="http://www.w3.org/2000/svg" viewBox="0 0 122.88 110.35" id="icon-audio">
        <g>
            <path d="M6.32,0v6.22h12.22V0h6.32v14.88h73.15V0h6.32v6.22h12.22V0h6.32v110.35h-6.32v-7.19h-12.22v7.19h-6.32V94.79H24.87v15.56 h-6.32v-7.19H6.32v7.19H0V0H6.32L6.32,0z M73.58,60.81c0.93-0.16,1.81-0.13,2.58,0.05v-18.1l-19.16,5.5v21.02 c0.01,0.11,0.02,0.23,0.02,0.35c0,0,0,0,0,0c0,2.83-2.97,5.64-6.63,6.27c-3.66,0.63-6.63-1.15-6.63-3.98 c0-2.83,2.97-5.64,6.63-6.27c1.38-0.24,2.66-0.13,3.72,0.24l0-25.88h0.16l24.79-5.68v29.15c0.04,0.21,0.07,0.43,0.07,0.65 c0,0,0,0,0,0c0,2.36-2.48,4.71-5.54,5.24c-3.06,0.53-5.54-0.96-5.54-3.33C68.04,63.68,70.52,61.33,73.58,60.81L73.58,60.81 L73.58,60.81z M98.01,21.2H24.87v67.27h73.15V21.2L98.01,21.2z M116.56,96.84v-11.8h-12.22v11.8H116.56L116.56,96.84z M116.56,78.72v-11.8h-12.22v11.8H116.56L116.56,78.72z M116.56,60.59v-11.8h-12.22v11.8H116.56L116.56,60.59z M116.56,42.47v-11.8 h-12.22v11.8H116.56L116.56,42.47z M116.56,24.35v-11.8h-12.22v11.8H116.56L116.56,24.35z M18.54,96.84v-11.8H6.32v11.8H18.54 L18.54,96.84z M18.54,78.72v-11.8H6.32v11.8H18.54L18.54,78.72z M18.54,60.59v-11.8H6.32v11.8H18.54L18.54,60.59z M18.54,42.47 v-11.8H6.32v11.8H18.54L18.54,42.47z M18.54,24.35v-11.8H6.32v11.8H18.54L18.54,24.35z" />
        </g>
    </symbol>
    <symbol xmlns="http://www.w3.org/2000/svg" viewBox="0 0 512 512" id="icon-play">
        <path d="M489 215l-288-176c-7.666-4.68-16.33-7.031-25.02-7.031C148.4 32.02 128 54.62 128 80v352C128 457.6 148.6 480 176 480c8.688 0 17.36-2.359 25.03-7.047l288-176C503.3 288.2 512 272.7 512 256S503.3 223.8 489 215zM176 432L175.8 80.03l288.2 175.1L176 432z" />
    </symbol>
    <symbol xmlns="http://www.w3.org/2000/svg" viewBox="0 0 512 512" id="icon-clock">
        <path d="M280 260V152C280 138.8 269.3 128 256 128S232 138.8 232 152V272c0 7.562 3.562 14.66 9.594 19.19l64 48C309.9 342.4 314.1 344 319.1 344c7.297 0 14.5-3.312 19.22-9.594c7.953-10.62 5.797-25.66-4.797-33.59L280 260zM255.1 0c-141.4 0-256 114.6-256 256s114.6 256 256 256s255.1-114.6 255.1-256S397.4 0 255.1 0zM256 464c-114.7 0-208-93.31-208-208S141.3 48 256 48s208 93.31 208 208S370.7 464 256 464z" />
    </symbol>
    <symbol xmlns="http://www.w3.org/2000/svg" viewBox="0 0 320 512" id="icon-close">
        <path d="M312.1 375c9.369 9.369 9.369 24.57 0 33.94s-24.57 9.369-33.94 0L160 289.9l-119 119c-9.369 9.369-24.57 9.369-33.94 0s-9.369-24.57 0-33.94L126.1 256L7.027 136.1c-9.369-9.369-9.369-24.57 0-33.94s24.57-9.369 33.94 0L160 222.1l119-119c9.369-9.369 24.57-9.369 33.94 0s9.369 24.57 0 33.94L193.9 256L312.1 375z" />
    </symbol>
    <symbol xmlns="http://www.w3.org/2000/svg" viewBox="0 0 84 42" id="imdb-logo">
        <g transform="translate(0.311 0.155)">
            <g>
                <rect width="84" height="42" rx="4" transform="translate(-0.311 -0.155)" fill="#f5c518" />
            </g>
            <g transform="translate(10.461 9.154)">
                <path d="M0,23.538H6.538V0H0Z" />
                <path d="M18.341,0,16.877,11l-.909-5.98Q15.573,2.141,15.21,0H7V23.538h5.547l.022-15.543L14.9,23.538h3.949L21.068,7.652l.016,15.886h5.53V0Z" transform="translate(2.154)" />
                <path d="M24,23.538V0H34.206a4.164,4.164,0,0,1,4.179,4.154v15.23a4.164,4.164,0,0,1-4.179,4.154Zm7.627-19.3a3.515,3.515,0,0,0-1.477-.208V19.473c.953,0,1.539-.171,1.759-.53a7.155,7.155,0,0,0,.333-2.876V6.941A11.234,11.234,0,0,0,32.128,4.9.962.962,0,0,0,31.627,4.236Z" transform="translate(7.384)" />
                <path d="M46.716,5.893h.418a4.18,4.18,0,0,1,4.25,4.1v9.437a4.178,4.178,0,0,1-4.25,4.1h-.418A4.292,4.292,0,0,1,43.24,21.8l-.377,1.439H37V0h6.256V7.559A4.429,4.429,0,0,1,46.716,5.893ZM45.376,17.371V11.794a5.5,5.5,0,0,0-.182-1.8,1.149,1.149,0,0,0-.96-.457c-.345,0-.877.145-.981.39v9.441c.118.269.626.418.981.418s.872-.145.98-.418A7.164,7.164,0,0,0,45.376,17.371Z" transform="translate(11.383)" />
            </g>
        </g>
    </symbol>
    <symbol xmlns="http://www.w3.org/2000/svg" viewBox="0 0 26 26" id="icon-home-mobile">
        <g transform="translate(10561 -11435)">
            <path d="M9.658,23.775h3.728v-6.86h6.728v6.86h3.728V13.511L16.75,8.38,9.658,13.511Zm0,2.08a2.121,2.121,0,0,1-1.528-.608A1.969,1.969,0,0,1,7.5,23.775V13.511a2,2,0,0,1,.869-1.675l7.092-5.1a3.709,3.709,0,0,1,.631-.311,1.846,1.846,0,0,1,1.317,0,3.709,3.709,0,0,1,.631.311l7.092,5.1a2.277,2.277,0,0,1,.645.756,1.966,1.966,0,0,1,.224.918V23.775a1.969,1.969,0,0,1-.631,1.472,2.121,2.121,0,0,1-1.528.608H18.124V18.805H15.377v7.049ZM16.75,16.077Z" transform="translate(-10564.5 11431.7)" />
            <rect transform="translate(-10561 11435)" />
        </g>
    </symbol>
    <symbol xmlns="http://www.w3.org/2000/svg" viewBox="0 0 26 26" id="icon-flight-mobile">
        <g transform="translate(10532 -11435)">
            <path d="M12.947,21.22l-2.755-.793-2.767.793a1.534,1.534,0,0,1-.42.059,1.538,1.538,0,0,1-1.542-1.523L5.45,18.379a1.547,1.547,0,0,1,.451-1.1,1.572,1.572,0,0,1,.171-.148L7.3,16.22V14.1l-5.3,1.645a1.522,1.522,0,0,1-.455.069A1.538,1.538,0,0,1,0,14.273l.006-1.822A1.53,1.53,0,0,1,.457,11.37a1.55,1.55,0,0,1,.272-.216l6.555-4.1V2.912A2.912,2.912,0,0,1,10.167,0H10.2A2.893,2.893,0,0,1,13.088,2.91V7.056l6.554,4.1a1.53,1.53,0,0,1,.723,1.3l.007,1.821a1.554,1.554,0,0,1-.45,1.094,1.7,1.7,0,0,1-.175.151,1.544,1.544,0,0,1-1.374.23L13.094,14.09v2.152l1.2.9a1.54,1.54,0,0,1,.618,1.239l-.006,1.371a1.53,1.53,0,0,1-.45,1.081,1.472,1.472,0,0,1-.166.143,1.545,1.545,0,0,1-1.345.248ZM9.185,17.17,7.339,18.539l.007.739,2.846-.815,2.831.814,0-.731-1.821-1.357V11.517L18.482,13.8l0-1.149L11.2,8.1V2.9a.989.989,0,0,0-.289-.714,1.009,1.009,0,0,0-.725-.3h-.018a1.024,1.024,0,0,0-1,1.008V8.1L1.894,12.651l0,1.152,7.295-2.264Z" transform="translate(-10529.187 11437.36)" />
            <rect transform="translate(-10532 11435)" />
        </g>
    </symbol>
    <symbol xmlns="http://www.w3.org/2000/svg" viewBox="0 0 26 26" id="icon-search-mobile">
        <g transform="translate(10502 -11435)">
            <path d="M10.263,3a7.268,7.268,0,0,1,5.52,11.99l.3.3h.883l5.587,5.587-1.676,1.676-5.587-5.587v-.883l-.3-.3A7.265,7.265,0,1,1,10.263,3m0,2.235a5.028,5.028,0,1,0,5.028,5.028A5.007,5.007,0,0,0,10.263,5.235Z" transform="translate(-10502 11435)" />
            <rect transform="translate(-10502 11435)" />
        </g>
    </symbol>


</svg>